HIERARCHY
ROOT RootJoint
{
    OFFSET   0.000000   0.000000   0.000000
    CHANNELS 6 Xposition Yposition Zposition Xrotation Yrotation Zrotation
    JOINT pelvis_lowerback
    {
        OFFSET   0.000000   0.093605   0.000000
        CHANNELS 3 Xrotation Yrotation Zrotation
        JOINT lowerback_torso
        {
            OFFSET   0.000000   0.100000   0.000000
            CHANNELS 3 Xrotation Yrotation Zrotation
            JOINT torso_head
            {
                OFFSET   0.000000   0.282350   0.000000
                CHANNELS 3 Xrotation Yrotation Zrotation
                End Site
                {
                    OFFSET   0.000000   0.192650   0.000000
                }
            }
            JOINT rTorso_Clavicle
            {
                OFFSET  -0.001000   0.157500   0.000000
                CHANNELS 3 Xrotation Yrotation Zrotation
                JOINT rShoulder
                {
                    OFFSET  -0.117647   0.000000   0.000000
                    CHANNELS 3 Xrotation Yrotation Zrotation
                    JOINT rElbow
                    {
                        OFFSET  -0.245000   0.000000   0.000000
                        CHANNELS 3 Xrotation Yrotation Zrotation
                        JOINT rWrist
                        {
                            OFFSET  -0.240000   0.000000   0.000000
                            CHANNELS 3 Xrotation Yrotation Zrotation
                            End Site
                            {
                                OFFSET  -0.116353  -0.002500   0.000000
                            }
                        }
                    }
                }
            }
            JOINT lTorso_Clavicle
            {
                OFFSET   0.001000   0.157500   0.000000
                CHANNELS 3 Xrotation Yrotation Zrotation
                JOINT lShoulder
                {
                    OFFSET   0.117647   0.000000   0.000000
                    CHANNELS 3 Xrotation Yrotation Zrotation
                    JOINT lElbow
                    {
                        OFFSET   0.245000   0.000000   0.000000
                        CHANNELS 3 Xrotation Yrotation Zrotation
                        JOINT lWrist
                        {
                            OFFSET   0.240000   0.000000   0.000000
                            CHANNELS 3 Xrotation Yrotation Zrotation
                            End Site
                            {
                                OFFSET   0.116353  -0.002500   0.000000
                            }
                        }
                    }
                }
            }
        }
    }
    JOINT rHip
    {
        OFFSET  -0.100000  -0.051395   0.000000
        CHANNELS 3 Xrotation Yrotation Zrotation
        JOINT rKnee
        {
            OFFSET   0.000000  -0.410000   0.000000
            CHANNELS 3 Xrotation Yrotation Zrotation
            JOINT rAnkle
            {
                OFFSET   0.000000  -0.390000   0.000000
                CHANNELS 3 Xrotation Yrotation Zrotation
                JOINT rToeJoint
                {
                    OFFSET   0.000000  -0.050000   0.130000
                    CHANNELS 3 Xrotation Yrotation Zrotation
                    End Site
                    {
                        OFFSET  -0.010000   0.002000   0.060000
                    }
                }
            }
        }
    }
    JOINT lHip
    {
        OFFSET   0.100000  -0.051395   0.000000
        CHANNELS 3 Xrotation Yrotation Zrotation
        JOINT lKnee
        {
            OFFSET   0.000000  -0.410000   0.000000
            CHANNELS 3 Xrotation Yrotation Zrotation
            JOINT lAnkle
            {
                OFFSET   0.000000  -0.390000   0.000000
                CHANNELS 3 Xrotation Yrotation Zrotation
                JOINT lToeJoint
                {
                    OFFSET   0.000000  -0.050000   0.130000
                    CHANNELS 3 Xrotation Yrotation Zrotation
                    End Site
                    {
                        OFFSET   0.010000   0.002000   0.060000
                    }
                }
            }
        }
    }
}
MOTION
Frames: 17
Frame Time:   0.008333
 -2.376719   0.925631   3.975860   0.000000   0.000000   0.000000   0.000000   0.000000   0.000000   0.000000   0.000000   0.000000   0.000000   0.000000   0.000000   0.000000   0.000000   0.000000   0.000000   0.000000   0.000000   0.000000   0.000000   0.000000   0.000000   0.000000   0.000000   0.000000   0.000000   0.000000   0.000000   0.000000   0.000000   0.000000   0.000000   0.000000   0.000000   0.000000   0.000000   0.000000   0.000000   0.000000   0.000000   0.000000   0.000000   0.000000   0.000000   0.000000   0.000000   0.000000   0.000000   0.000000   0.000000   0.000000   0.000000   0.000000   0.000000   0.000000   0.000000   0.000000   0.000000   0.000000   0.000000
 -2.376584   0.926213   3.975154   0.586717   0.164349  -0.002504  -0.630402   0.037854  -0.006285   0.184449  -0.181965   0.028695  -0.132527   0.077014   0.065943   0.137117  -0.368379   0.330230  -0.214577  -0.061417   2.131416   0.010885   0.502586  -0.000288   0.092223   0.162666  -3.055040   0.110889   0.241677  -0.504240   0.227629   0.130998  -1.874619   0.012638  -0.613596   0.002596   0.112223  -0.184945   2.943086  -1.071923  -0.227228  -0.307302   1.115127   0.002976  -0.000653  -1.027839  -0.592970   0.056427  -0.199137  -0.000434   0.001136  -1.247215   0.076314   0.269204   1.639521  -0.003797   0.003520  -1.120260   0.317260  -0.081771   0.301018  -0.000493   0.001464
 -2.376400   0.927157   3.974573   1.113260   0.342023  -0.016280  -1.185415   0.071333   0.001856   0.398431  -0.375983   0.070015  -0.240361   0.152566   0.135554   0.272420  -0.807610   1.419109  -0.415065  -0.189301   4.780914   0.023926   0.964608  -0.000606   0.199288   0.400703  -5.346388   0.224156   0.532598  -1.763312   0.447693   0.286664  -4.232892   0.028050  -1.186084   0.004601   0.253559  -0.481257   5.133590  -2.090970  -0.440636  -0.864549   2.246499   0.007892  -0.001140  -1.988046  -1.159210   0.095001  -0.432978  -0.001414   0.002132  -2.406994   0.152898   0.777957   3.321936  -0.010133   0.007058  -2.161210   0.624759  -0.149071   0.551347  -0.001327   0.002422
 -2.376178   0.928012   3.974136   1.604091   0.515066  -0.038319  -1.697466   0.094010   0.022797   0.613569  -0.568195   0.123300  -0.329759   0.223518   0.200788   0.412717  -1.265736   2.995491  -0.593074  -0.356767   7.670176   0.035567   1.381288  -0.000777   0.303730   0.575326  -6.716331   0.340416   0.838985  -3.484650   0.661634   0.450611  -6.841381   0.042052  -1.709626   0.005877   0.393510  -0.739038   6.431415  -3.056812  -0.625903  -1.625375   3.311961   0.013406  -0.001597  -2.883385  -1.691898   0.119793  -0.653537  -0.002560   0.002752  -3.466158   0.212304   1.480003   4.917865  -0.017271   0.009997  -3.131186   0.916674  -0.204387   0.777960  -0.002290   0.003038
 -2.375929   0.928447   3.973819   2.067791   0.677016  -0.065801  -2.176228   0.107375   0.054729   0.817501  -0.755334   0.186364  -0.407375   0.289726   0.261518   0.561194  -1.721011   4.852068  -0.746683  -0.548173  10.649875   0.044611   1.759125  -0.000786   0.398362   0.682612  -7.398309   0.461580   1.145023  -5.464272   0.871431   0.611287  -9.553033   0.053111  -2.190276   0.006570   0.524110  -0.946957   7.062020  -3.977133  -0.781596  -2.548729   4.304377   0.018733  -0.002109  -3.719327  -2.192189   0.133121  -0.861561  -0.003713   0.003101  -4.436704   0.251266   2.334912   6.416438  -0.024236   0.012357  -4.036514   1.192726  -0.249400   0.980030  -0.003204   0.003374
 -2.375663   0.928226   3.973602   2.506038   0.824843  -0.096589  -2.626376   0.113236   0.095891   1.006703  -0.935994   0.257363  -0.476255   0.351431   0.318164   0.718494  -2.162946   6.847785  -0.876002  -0.753821  13.621867   0.050835   2.103375  -0.000662   0.482263   0.736973  -7.615244   0.587853   1.442562  -7.563846   1.077358   0.762827 -12.269982   0.060869  -2.633314   0.006829   0.644044  -1.115029   7.243488  -4.854613  -0.907565  -3.598399   5.226954   0.023431  -0.002677  -4.500123  -2.661470   0.136984  -1.056538  -0.004760   0.003251  -5.326895   0.269146   3.308112   7.821595  -0.030480   0.014206  -4.881683   1.453122  -0.285574   1.160824  -0.003985   0.003505
 -2.375389   0.927184   3.973468   2.919015   0.957143  -0.129063  -3.050876   0.112910   0.144631   1.180698  -1.109592   0.334750  -0.538220   0.408928   0.371153   0.884078  -2.586660   8.887997  -0.982211  -0.967380  16.523407   0.054463   2.418081  -0.000443   0.556566   0.751359  -7.534034   0.718634   1.727747  -9.690833   1.278912   0.902925 -14.929095   0.065529  -3.042832   0.006782   0.754053  -1.253239   7.139485  -5.690559  -1.004488  -4.742774   6.084350   0.027281  -0.003270  -5.229546  -3.101180   0.133107  -1.238035  -0.005632   0.003257  -6.143100   0.266575   4.369911   9.138974  -0.035713   0.015600  -5.670680   1.698249  -0.314197   1.323656  -0.004603   0.003495
 -2.375014   0.924695   3.973345   3.175983   0.948819  -0.155427  -3.195790   0.125616   0.278721   1.228389  -1.208639   0.333672  -0.728598   0.384847   0.398130   0.971869  -2.850929  10.347881  -1.005600  -1.123317  19.122176   0.048108   2.543463  -0.000302   0.511264   0.647243  -6.455759   0.817999   2.075190 -11.035938   1.337218   0.948412 -17.646408   0.057734  -3.196026   0.005621   0.818252  -1.455709   6.181985  -6.407071  -1.325534  -5.849818   7.013057   0.030455  -0.007028  -5.565856  -3.578421   0.280266  -1.345812  -0.005448   0.003387  -6.557230   0.505101   5.384564   9.607711  -0.032286   0.014403  -6.109101   2.159295  -0.408305   1.598352  -0.005716   0.004714
 -2.374626   0.920975   3.973151   3.419589   0.950795  -0.181025  -3.316552   0.130494   0.419572   1.267735  -1.290776   0.328985  -0.920464   0.356416   0.423089   1.049453  -3.067586  11.481943  -1.030179  -1.252063  21.390300   0.042116   2.662526  -0.000205   0.460591   0.504067  -5.529684   0.912636   2.394750 -12.082613   1.390145   0.992388 -20.048002   0.050224  -3.334138   0.004634   0.864261  -1.602537   5.323569  -7.079321  -1.632881  -6.906855   7.900205   0.032101  -0.009810  -5.872611  -4.028896   0.414263  -1.406643  -0.004869   0.003131  -6.978159   0.727653   6.344311   9.944269  -0.028338   0.012877  -6.522235   2.593209  -0.491649   1.855498  -0.006353   0.005505
 -2.374250   0.916166   3.972914   3.643467   0.965218  -0.206065  -3.416945   0.141240   0.555912   1.310591  -1.358926   0.324941  -1.101530   0.329062   0.448359   1.119596  -3.255104  12.385066  -1.055400  -1.361923  23.395052   0.036726   2.778581  -0.000150   0.414937   0.381106  -4.861448   1.001683   2.688131 -12.915536   1.438117   1.031756 -22.185156   0.043423  -3.463642   0.003800   0.905510  -1.737613   4.697115  -7.691902  -1.910056  -7.907286   8.733977   0.032475  -0.011561  -6.158047  -4.450099   0.536747  -1.458627  -0.004309   0.002839  -7.413224   0.926449   7.249012  10.230012  -0.024670   0.011412  -6.909120   2.998499  -0.566140   2.089734  -0.006596   0.005911
 -2.373896   0.910369   3.972656   3.847640   0.988160  -0.230680  -3.500526   0.161258   0.684908   1.358115  -1.412441   0.321158  -1.270526   0.303405   0.473020   1.183040  -3.419537  13.117466  -1.080889  -1.456997  25.185672   0.031932   2.890909  -0.000129   0.374327   0.283245  -4.399929   1.085995   2.960520 -13.588098   1.482205   1.068444 -24.102914   0.037376  -3.584857   0.003094   0.943897  -1.868118   4.265199  -8.246004  -2.160184  -8.847650   9.517225   0.031916  -0.012529  -6.424045  -4.843508   0.648926  -1.505006  -0.003794   0.002547  -7.856221   1.102978   8.098320  10.480662  -0.021376   0.010062  -7.270726   3.376927  -0.632867   2.304756  -0.006567   0.006040
 -2.373612   0.909822   3.972627   3.910289   0.645074  -0.024106  -3.502733   0.333064   0.632016   1.449949  -1.343732   0.246668  -1.418161   0.284508   0.492941   1.207529  -3.502206  14.105576  -1.121203  -1.503996  26.939617   0.028348   3.006212  -0.000055   0.342204   0.226898  -4.138368   1.177614   3.236638 -14.484387   1.529766   1.121634 -25.945086   0.032182  -3.682448   0.002558   0.971116  -1.906250   4.052271  -9.026402  -2.605148  -9.237815  10.520129   0.025709  -0.018772  -6.292299  -5.382716   1.137636  -1.430102  -0.003196   0.001066  -8.272022   1.251322   7.956766  11.315610  -0.017253   0.007150  -7.522544   3.533026  -1.212447   1.881684  -0.007329   0.004875
 -2.373573   0.909470   3.973020   3.958342   0.477649   0.092139  -3.562575   0.404707   0.657281   1.525286  -1.327075   0.187118  -1.549640   0.262043   0.505780   1.250694  -3.614338  14.862700  -1.146961  -1.568259  28.567426   0.024945   3.112567   0.000055   0.312663   0.186912  -3.714508   1.275032   3.505615 -15.181292   1.581792   1.176916 -27.673754   0.027671  -3.776279   0.002053   1.000862  -1.958332   3.665923  -9.530704  -2.877355  -9.455460  11.271146   0.020377  -0.018840  -6.478589  -5.735604   1.265449  -1.427805  -0.002558   0.000834  -8.574718   1.479513   7.902835  11.901646  -0.013805   0.006321  -7.704496   3.880391  -1.329669   1.633921  -0.006091   0.002932
 -2.373718   0.909369   3.973688   4.011792   0.430261   0.146033  -3.520940   0.464379   0.637312   1.399862  -1.339772   0.226327  -1.711305   0.175593   0.562171   1.272091  -3.836281  15.190944  -1.072988  -1.622092  29.834942   0.023622   3.366216   0.000313   0.211422   0.087592  -2.700328   1.341499   3.853596 -15.387796   1.509765   1.229037 -29.261339   0.024565  -3.938454   0.001200   1.020333  -1.994608   2.808184  -9.686978  -3.057523  -9.558669  11.437370   0.016254  -0.015497  -6.335548  -5.896324   1.416283  -1.257020  -0.002175   0.000038  -8.730130   1.741872   7.914095  12.144553  -0.011036   0.005590  -7.756843   4.153914  -1.362360   1.543739  -0.004878   0.001941
 -2.373943   0.909370   3.974322   4.125718   0.436352   0.174736  -3.505107   0.523248   0.614409   1.238115  -1.355739   0.266439  -1.881247   0.093020   0.622894   1.290285  -4.044640  15.241820  -1.009681  -1.665274  30.838891   0.021224   3.610181   0.000450   0.115671   0.035605  -1.915493   1.393478   4.172014 -15.347144   1.435357   1.275236 -30.586601   0.021343  -4.096246   0.000478   1.033206  -2.068943   2.138001  -9.818422  -3.218026  -9.620132  11.475830   0.012993  -0.012462  -6.235156  -6.042657   1.552005  -1.081860  -0.001894  -0.000450  -8.896930   1.981640   7.947675  12.263734  -0.008827   0.004757  -7.819390   4.404993  -1.378405   1.768428  -0.003923   0.002559
 -2.374225   0.909420   3.974873   4.268570   0.483955   0.192508  -3.488069   0.580742   0.583809   1.075416  -1.370298   0.294896  -2.047182   0.015963   0.680763   1.297216  -4.227245  15.105890  -0.960075  -1.692366  31.642940   0.018364   3.843909   0.000448   0.025880   0.017519  -1.408285   1.429866   4.456080 -15.140014   1.358397   1.312075 -31.700738   0.018233  -4.247950  -0.000080   1.045390  -2.165510   1.716920  -9.942956  -3.368263  -9.661558  11.463325   0.010398  -0.009955  -6.160204  -6.179909   1.676548  -0.925147  -0.001660  -0.000695  -9.070564   2.201619   7.989590  12.314928  -0.007062   0.003935  -7.899369   4.639176  -1.387781   1.978970  -0.003162   0.002990
 -2.374555   0.909492   3.975347   4.426813   0.569094   0.202554  -3.461334   0.636638   0.545018   0.924395  -1.382738   0.310513  -2.204003  -0.055986   0.734273   1.292853  -4.385377  14.844350  -0.923030  -1.705067  32.294161   0.015423   4.067746   0.000335  -0.058663   0.029413  -1.122231   1.452270   4.709452 -14.823117   1.279453   1.340064 -32.649201   0.015379  -4.393533  -0.000495   1.057444  -2.278874   1.496788 -10.062325  -3.509283  -9.688765  11.425867   0.008328  -0.007940  -6.100288  -6.308660   1.791995  -0.783435  -0.001463  -0.000783  -9.249463   2.403465   8.036708  12.322806  -0.005650   0.003169  -7.988248   4.857719  -1.392959   2.170426  -0.002554   0.003250
